<?xml version="1.0" standalone="no"?><svg xmlns="http://www.w3.org/2000/svg" viewBox="0 0 1440 320"><path fill="#0099ff" fill-opacity="1" d="M0,32L18.5,32C36.9,32,74,32,111,74.7C147.7,117,185,203,222,213.3C258.5,224,295,160,332,154.7C369.2,149,406,203,443,202.7C480,203,517,149,554,138.7C590.8,128,628,160,665,149.3C701.5,139,738,85,775,101.3C812.3,117,849,203,886,250.7C923.1,299,960,309,997,277.3C1033.8,245,1071,171,1108,160C1144.6,149,1182,203,1218,213.3C1255.4,224,1292,192,1329,154.7C1366.2,117,1403,75,1422,53.3L1440,32L1440,0L1421.5,0C1403.1,0,1366,0,1329,0C1292.3,0,1255,0,1218,0C1181.5,0,1145,0,1108,0C1070.8,0,1034,0,997,0C960,0,923,0,886,0C849.2,0,812,0,775,0C738.5,0,702,0,665,0C627.7,0,591,0,554,0C516.9,0,480,0,443,0C406.2,0,369,0,332,0C295.4,0,258,0,222,0C184.6,0,148,0,111,0C73.8,0,37,0,18,0L0,0Z"></path></svg>